# xmcd
#
# Track frame offsets:
#	150
#	39053
#	73903
#	128411
#	227844
#	265935
#	305194
#	336542
#
# Disc length: 4780 seconds
#
# Revision: 1
# Processed by: cddbd v1.5.2PL0 Copyright (c) Steve Scherf et al.
# Submitted via: audiograbber 1.83.01
#
DISCID=7212aa08
DTITLE=Grateful Dead - 92-12-12 Oakland Coliseum Arena, Oakland CA
DYEAR=1900
DGENRE=
TTITLE0=Crazy Fingers
TTITLE1=Woman Are Smarter
TTITLE2=Dark Star
TTITLE3=Drums
TTITLE4=Jam > I Need A Miracle
TTITLE5=Standing On The Moon
TTITLE6=One More Saturday Night
TTITLE7=Rain
EXTD=
EXTT0=
EXTT1=
EXTT2=
EXTT3=
EXTT4=
EXTT5=
EXTT6=
EXTT7=
PLAYORDER=
